<?xml version='1.0' encoding='utf-8'?>
<svg xmlns="http://www.w3.org/2000/svg" width="512.0" height="512.0" viewBox="0.0 512.0 512.0 512.0"><path d="M236.256 572.663C253.225 570.828 266.463 578.071 277.67 589.965C283.746 582.802 290.711 578.049 299.691 575.165C312.925 570.815 327.347 571.916 339.768 578.225C354.028 585.643 360.345 596.036 364.924 610.714C400.943 616.219 416.377 651.575 403.667 684.295C417.968 695.344 425.286 704.224 428.357 722.449L416.996 721.584C414.088 711.409 409.957 703.593 401.089 697.126C397.501 694.51 394.5 693.355 390.968 690.178C388.395 683.795 397.069 674.359 397.055 662.509C397.034 645.533 388.061 630.544 371.869 624.495C368.556 623.257 357.926 622.15 356.352 620.125C350.019 610.522 353.099 605.566 344.566 595.87C329.283 578.502 292.265 580.113 284.137 603.519C282.624 607.875 283.302 628.214 283.305 635.009L283.339 693.732L283.286 796.008C283.256 811.247 282.515 830.241 284.217 845.307C284.772 850.213 289.359 853.004 293.228 855.487C294.322 860.886 295.314 863.746 297.103 868.881C287.063 866.211 283.754 864.905 276.482 857.463C273.855 859.498 270.168 862.399 267.428 864.038C256.119 870.792 242.58 872.743 229.824 869.456C215.962 865.822 208.235 858.28 201.291 846.375C197.998 846.113 194.65 845.808 191.396 845.24C178.14 842.902 166.354 835.398 158.627 824.374C149.389 810.945 148.328 797.55 151.062 782.086C118.465 756.528 118.031 708.396 152.817 685.111C151.153 681.593 149.581 676.763 148.782 672.978C145.786 659.222 148.478 644.839 156.246 633.098C164.847 620.05 176.355 613.91 191.303 610.96C196.63 587.538 213.255 575.574 236.256 572.663Z" /><path fill="white" d="M233.363 584.516C245.55 583.207 258.782 585.915 267.21 595.552C273.851 603.146 271.176 619.122 271.684 629.058C272.071 636.641 271.704 645.532 271.708 653.226L271.713 738.108L271.721 806.165C271.721 817.262 272.227 830.635 271.399 841.294C270.364 854.625 247.335 861.88 236.204 859.643C221.928 856.774 216.079 849.005 208.836 837.334C206.529 833.615 196.726 834.519 192.303 834.06C164.357 827.669 157.631 802.981 162.874 780.324C163.939 775.721 152.775 768.747 149.131 764.708C132.862 746.676 135.03 714.617 153.514 698.81C157.69 695.252 161.902 692.596 165.947 688.947C167.292 684.1 160.673 674.862 159.596 669.344C156.665 641.83 169.599 626.779 195.393 621.948C209.155 619.371 196.492 593.263 233.363 584.516Z" /><path d="M208.896 660.245C221.33 660.727 230.932 665.581 238.477 675.666C243.339 682.164 247.402 691.333 239.24 697.081C229.485 695.251 233.249 684.192 225.794 677.657C220.396 672.925 211.763 672.874 205.936 669.65C203.364 664.664 204.579 663.25 208.896 660.245Z" /><path d="M226.735 748.152C230.143 748.712 234.011 750.985 232.685 754.814C230.424 761.342 222.082 758.759 215.907 763.371C207.901 769.349 209.649 778.848 203.226 783.419C201.865 783.198 200.037 782.872 198.883 782.129C197.285 781.1 196.218 779.423 195.961 777.54C195.235 772.555 199.876 764.544 203 760.893C210.084 752.615 216.278 749.414 226.735 748.152Z" /><path d="M344.471 736.206C357.421 735.472 370.764 736.088 383.763 736.066C396.903 736.044 411.393 734.878 424.35 736.906C429.985 737.787 435.135 739.516 439.835 742.793C448.933 749.137 454.326 757.788 456.16 768.692C457.865 778.832 457.859 841.253 456.181 851.361C455.169 857.646 452.72 863.613 449.025 868.797C441.649 879.062 432.802 882.477 420.869 884.465L369.961 884.534C361.224 884.546 346.183 885.093 338.136 883.531C332.111 882.362 326.447 879.782 321.61 876.003C313.465 869.633 307.577 858.587 306.879 848.248C305.586 829.099 306.816 809.615 306.38 790.397C306.223 783.485 306.166 774.853 307.473 768.129C308.684 761.693 311.443 755.649 315.512 750.52C323.223 740.903 332.641 737.533 344.471 736.206Z" /><path fill="white" d="M343.447 747.366C356.093 746.509 370.611 747.116 383.531 747.182C412.817 747.33 446.303 740.577 445.715 781.85C445.41 803.191 446.346 824.925 445.383 846.243C444.688 861.612 435.441 869.913 421.188 873.374C395.691 873.731 368.601 873.888 343.624 873.06C316.184 870.622 315.826 839.638 317.422 819.485C319.695 790.791 307.047 755.578 343.447 747.366Z" /><path d="M380.961 768.785C381.399 768.858 381.837 768.931 382.275 769.005C391.653 770.067 390.92 787.177 398.333 794.566C405.713 801.923 416.512 801.137 422.498 808.48C423.38 809.562 423.182 811.846 422.576 813.234C421.098 816.619 413.039 819.533 409.708 820.68C393.838 826.145 394.785 832.738 389.045 846.527C387.442 850.378 386.813 850.881 382.971 852.401C372.457 850.183 374.077 833.994 365.657 826.299C358.608 819.856 340.955 819.588 341.459 809.584C345.041 802.215 358.28 802.026 364.953 796.029C374.013 787.887 372.024 774.428 380.961 768.785Z" /><path fill="white" d="M382.073 788.237C383.057 789.267 385.072 793.491 386.057 795.126C391.764 804.599 395.294 806.417 404.732 810.963C391.202 817.851 388.481 819.778 382.717 833.656C381.494 832.397 379.774 828.706 378.683 826.912C372.587 816.891 369.734 815.475 359.608 811.073C372.977 804.71 376.152 801.639 382.073 788.237Z" /><path d="M342.08 660.308C346.798 660.021 348.734 660.222 351.008 664.528C351.246 672.801 337.54 671.77 330.709 676.997C322.696 683.129 325.113 689.889 320.867 695.73C303.342 701.592 311.181 666.426 342.08 660.308Z" /></svg>