<?xml version='1.0' encoding='utf-8'?>
<svg xmlns="http://www.w3.org/2000/svg" width="512.0" height="512.0" viewBox="512.0 512.0 512.0 512.0"><path d="M724.816 676.049C733.172 675.329 746.652 675.726 755.535 675.73L811.727 675.764L864.205 675.701C877.327 675.693 894.647 673.578 905.73 680.364C910.374 683.086 916.011 691.805 916.315 697.202C917.756 722.857 916.328 749.032 916.825 774.799C916.892 778.304 915.686 783.315 911.753 783.901C905.137 780.775 907.048 772.51 907.094 765.971L907.306 724.253C907.337 716.688 907.837 707.569 906.807 700.179C905.676 692.068 898.439 686.23 890.398 685.992C878.879 685.652 867.548 685.727 856.084 685.723L792.669 685.723L749.986 685.734C736.834 685.742 715.061 682.215 713.763 701.436C712.675 717.549 713.338 734.626 713.37 750.853L713.327 822.247C713.311 833.444 709.046 873.829 724.74 874.85C767.868 877.656 812.242 874.109 855.442 876.32C857.691 876.435 860.05 880.003 859.022 882.917C853.869 887.143 844.531 886.033 838.145 886C801.467 885.816 764.716 886.48 728.054 885.787C718.236 885.601 708.528 878.367 705.291 869.021C704.372 866.428 703.841 863.713 703.714 860.965C703.498 857.003 703.57 852.873 703.579 848.898C703.691 800.203 703.294 751.491 703.814 702.802C703.976 687.625 711.082 680.89 724.816 676.049Z" /><path d="M668.94 616.749C697.147 615.452 735.433 616.55 764.327 616.537L819.303 616.525C831.996 616.526 850.929 615.22 862.588 619.358C875.436 623.918 880.457 649.248 875.025 659.887C872.913 661.593 873.91 661.3 871.433 661.102C862.051 655.478 869.996 644.051 864.193 634.798C863.051 632.257 858.397 627.981 855.498 627.591C842.145 625.793 827.311 626.483 813.881 626.485L735.388 626.517L693.419 626.537C681.708 626.521 671.348 624.419 661.457 631.113C654.075 639.391 656.215 652.639 656.212 663.398L656.213 706.698L656.179 766.714C656.18 777.354 655.591 788.404 656.46 798.997C658.74 826.768 679.979 811.51 686.952 818.743C688.491 820.339 688.459 821.46 688.535 823.522C687.827 824.631 687.082 826.228 685.63 826.484C664.597 830.201 646.638 822.521 646.525 799.027C646.19 750.742 646.501 702.426 646.39 654.139C646.346 634.89 647.502 622.133 668.94 616.749Z" /><path d="M899.581 800.231C900.595 800.21 904.37 800.346 904.799 800.795C910.981 809.177 911.158 818.345 917.013 828.2C923.857 839.72 947.781 841.387 948.792 850.542C944.88 856.508 929.429 858.07 920.852 865.928C909.401 876.418 911.485 891.757 904.591 898.16C901.424 897.924 898.73 898.19 897.399 894.387C893.628 883.272 891.936 873.8 883.268 865.26C876.403 858.497 856.676 856.807 855.701 848.113C857.801 844.632 876.965 837.952 883.079 833.445C894.304 825.17 893.947 806.088 899.581 800.231Z" /><path fill="white" d="M902.358 821.877C903.173 822.991 906.384 829.113 907.432 830.758C913.95 840.99 918.99 843.97 929.177 849.146C914.435 856.325 908.922 862.629 902.484 877.247C896.004 861.752 889.778 856.753 875.444 849.306C890.657 842.133 894.953 836.338 902.358 821.877Z" /><path d="M840.892 770.402C850.104 771.519 858.65 784.162 865.707 790.163C869.13 793.074 873.914 798.525 873.559 803.316C871.926 805.654 872.828 804.9 869.908 806.004C866.697 805.89 865.684 804.804 863.481 802.594C856.305 795.395 849.225 788.096 841.942 781.005C832.41 789.928 823.577 800.514 814.182 809.67C809.278 814.449 802.259 823.764 795.16 824.287C790.049 822.705 778.585 810.071 773.736 805.472L764.262 815.074C757.555 822.089 746.667 834.061 738.951 840.659C737.251 842.113 733.727 841.506 732.403 838.55C732.922 829.833 764.219 798.491 773.801 795.141C777.712 793.774 792.785 810.291 796.464 813.681C804.39 805.753 833.604 773.443 840.892 770.402Z" /><path d="M760.872 728.846C773.041 726.518 784.816 734.421 787.275 746.567C789.734 758.712 781.96 770.575 769.845 773.165C761.891 774.866 753.636 772.161 748.23 766.082C742.823 760.003 741.099 751.487 743.715 743.783C746.331 736.079 752.883 730.375 760.872 728.846Z" /><path fill="white" d="M761.508 738.604C768.264 736.614 775.365 740.421 777.45 747.15C779.535 753.879 775.831 761.036 769.134 763.217C764.717 764.656 759.866 763.604 756.441 760.464C753.016 757.324 751.547 752.582 752.596 748.055C753.645 743.528 757.05 739.916 761.508 738.604Z" /><path d="M595.303 725.89C606.137 728.951 598.433 740.271 607.64 747.399C614.317 752.568 629.685 747.665 631.014 755.705C630.214 758.267 629.646 758.635 627.668 760.506C616.908 760.738 606.799 761.509 598.955 752.585C593.075 745.897 587.292 733.021 595.303 725.89Z" /><path d="M785.833 559.542C801.298 558.796 811.998 571.026 812.918 585.791C813.189 590.15 812.98 597.642 810.035 601.02C796.768 601.25 805.321 587.159 801.424 578.67C797.56 570.253 786.837 571.473 783.621 565.006C783.686 562.221 784.139 561.812 785.833 559.542Z" /><path d="M611.524 559.859C615.534 559.278 620.839 558.935 622.061 563.88C616.37 579.011 603.924 558.105 601.018 592.924C598.622 594.388 598.216 594.739 595.447 594.66C586.738 590.451 593.594 572.48 598.921 567.318C603.634 562.751 605.315 562.034 611.524 559.859Z" /><path d="M593.972 670.523C595.609 670.568 598.559 670.643 599.376 671.847C603.339 677.697 602.778 701.131 598.874 705.659C595.283 705.698 596.564 706.082 593.671 704.535C590.137 699.742 590.402 675.184 593.972 670.523Z" /><path d="M593.933 615.792C597.343 615.97 596.988 615.475 599.606 617.099C603.185 622.35 602.675 645.505 599.153 650.449C596.43 650.573 595.971 650.794 593.772 649.446C589.936 644.786 590.516 620.49 593.933 615.792Z" /><path d="M649.946 559.254C655.652 559.155 670.463 557.388 671.684 564.506C668.846 569.639 663.221 569.485 658.313 569.272C652.469 569.331 639.977 571.047 636.98 565.241C637.711 559.179 645.565 559.166 649.946 559.254Z" /><path d="M693.659 559.256C700.865 559.229 715.27 557.158 719.512 562.873C719.779 565.194 719.647 565.47 718.582 567.565C716.535 569.189 716.178 569.054 713.437 569.276C706.304 569.34 691.63 571.43 687.438 565.768C687.14 563.453 687.362 563.285 688.447 561.091C690.508 559.377 690.848 559.508 693.659 559.256Z" /><path d="M745.877 559.268C752.598 559.139 765.64 556.871 768.474 563.722C768.287 566.083 768.363 566.269 766.977 568.07C764.596 569.568 762.72 569.289 759.937 569.275C754.054 569.396 738.318 571.172 735.608 565.174C736.822 558.937 740.769 559.245 745.877 559.268Z" /></svg>