<?xml version='1.0' encoding='utf-8'?>
<svg xmlns="http://www.w3.org/2000/svg" width="512.0" height="512.0" viewBox="512.0 0.0 512.0 512.0"><path d="M875.258 312.71C877.295 312.92 880.731 313.388 882.005 315.052C889.3 326.613 889.207 336.999 897.22 349.069C905.509 361.554 937.427 362.264 937.969 374.641C934.513 382.803 911.764 387.098 902.522 393.399C890.488 401.602 887.631 428.533 881.45 432.739C880.981 433.057 880.503 433.358 880.014 433.644C879.64 433.864 879.262 434.078 878.881 434.285C864.839 433.758 866.247 408.226 856.04 397.747C848.133 386.356 825.202 385.517 817.29 377.371C808.005 367.814 846.796 358.822 853.455 352.539C865.441 341.233 865.044 318.642 875.258 312.71Z" /><path fill="white" d="M876.788 332.762C877.461 333.796 879.905 339.438 880.491 340.818C889.641 362.37 897.59 365.856 918.276 373.617C892.303 383.229 887.352 389.099 877.314 414.364C876.273 413.208 872.175 402.925 871.229 400.906C863.453 384.318 851.852 379.555 835.972 373.641C862.231 364.36 866.856 358.223 876.788 332.762Z" /><path d="M798.848 245.398C800.941 245.106 803.748 244.827 805.754 245.528C809.69 246.904 849.543 287.239 851.483 291.96C852.355 294.083 852.373 295.319 851.518 297.37C848.252 299.425 842.371 297.959 839.902 295.415C827.486 282.615 814.982 269.875 802.419 257.188C790.527 267.634 727.158 337.515 719.643 338.692C714.536 339.491 695.479 316.638 690.028 312.484C687.307 312.384 688.347 312.186 685.738 314.32C678.009 322.12 647.538 355.956 640.866 358.655C639.047 359.391 636.697 360.056 634.815 359.171C633.25 358.435 633.304 357.939 632.775 356.4C633.724 347.878 653.152 331.242 659.472 324.421C692.278 289.019 688.825 294.369 719.247 325.098C737.396 307.339 755.097 287.848 773.157 269.982C778.662 264.536 793.037 248.71 798.848 245.398Z" /><path d="M683.645 199.24C698.634 196.363 713.15 206.074 716.215 221.03C719.28 235.985 709.753 250.626 694.841 253.879C685.027 256.02 674.82 252.715 668.121 245.228C661.423 237.74 659.269 227.227 662.482 217.708C665.696 208.188 673.78 201.133 683.645 199.24Z" /><path fill="white" d="M685.511 210.499C694.297 208.65 702.935 214.214 704.888 222.978C706.842 231.743 701.384 240.449 692.646 242.508C686.899 243.863 680.868 242.021 676.856 237.688C672.845 233.355 671.473 227.198 673.264 221.571C675.056 215.944 679.734 211.715 685.511 210.499Z" /><path d="M838.503 125.59C855.382 125.453 872.969 124.202 889.378 127.081C897.218 128.456 903.368 140.47 903.231 147.212C903.01 158.127 905.666 182.371 902.574 191.858C900.855 194.222 899.752 194.4 897.049 195.535C893.596 194.015 892.502 193.288 891.652 189.51C889.187 178.556 894.96 150.909 889.06 142.108C881.562 130.924 840.77 143.935 833.369 134.194C832.627 129.575 834.276 127.206 838.503 125.59Z" /><path d="M598.566 356.114C599.544 356.309 602.959 357.075 603.371 357.815C610.566 369.011 602.334 396.696 607.036 407.834C613.128 422.266 651.551 407.504 662.686 417.753C664.704 422.303 662.61 423.807 658.675 426.552C603.608 425.462 591.328 436.555 593.742 374.769C594.051 366.859 591.648 361.479 598.566 356.114Z" /><path d="M614.816 125.59C622.853 125.457 655.87 124.531 660.78 126.983C661.837 128.022 663.439 130.3 662.989 131.579C657.457 147.305 619.783 129.295 609.421 141.181C604.904 146.364 605.838 153.718 605.907 157.914C605.876 168.066 606.325 178.368 605.971 188.45C605.824 192.664 601.791 195.887 597.377 194.79C593.479 191.576 593.164 186.383 593.738 181.625C596.303 160.346 584.601 129.973 614.816 125.59Z" /><path d="M697.587 125.544C710.722 125.534 794.302 124.064 799.687 126.635C801.015 127.27 802.122 128.691 802.568 130.073C803.053 131.592 802.893 133.244 802.124 134.642C801.032 136.595 799.455 137.111 797.45 137.726L730.159 137.635C722.941 137.651 697.81 139.312 693.345 135.11C691.773 130.335 693.128 127.833 697.587 125.544Z" /><path d="M695.597 414.8C727.3 412.808 762.115 415.556 794.056 414.76C795.869 414.714 797.629 415.493 799.034 416.617C801.523 420.97 800.249 423.311 796.566 426.529C764.994 427.789 731.847 425.951 700.107 426.555C691.916 426.711 690.615 420.842 695.597 414.8Z" /><path d="M597.638 225.601C600.572 225.744 601.889 225.657 604.223 227.383C605.946 229.616 605.913 233.028 605.906 236.255C605.842 264.792 606.42 293.627 605.634 322.122C605.606 323.163 603.116 325.705 602.335 326.52C599.63 326.411 597.144 326.419 595.188 324.297C592.794 321.702 593.775 246.88 593.853 237.276C593.897 231.89 593.65 229.518 597.638 225.601Z" /><path d="M895.38 225.537C898.523 225.807 899.416 225.76 901.918 227.624C905.474 232.465 903.032 275.383 903.373 284.03C903.498 287.189 902.185 288.977 899.969 291.126C897.836 291.07 892.057 290.684 891.928 287.531C891.153 268.642 891.484 249.563 891.696 230.652C891.721 228.427 893.826 226.932 895.38 225.537Z" /></svg>