<?xml version='1.0' encoding='utf-8'?>
<svg xmlns="http://www.w3.org/2000/svg" width="512.0" height="512.0" viewBox="0.0 0.0 512.0 512.0"><path d="M145.058 127.87C194.502 127.072 246.297 127.902 295.882 127.915L349.499 127.83C389.991 127.723 413 124.403 409.476 176.281C408.848 185.516 411.034 216.793 407.421 222.425C405.771 223.383 406.255 223.518 404.675 223.4C402.267 223.22 400.615 221.698 399.98 219.357C398.802 215.016 399.438 210.057 399.357 205.575C399.062 189.174 400.764 171.318 398.855 155.167C398.442 151.678 395.813 146.251 393.362 143.758C388.587 138.904 382.77 138.248 376.341 138.224C325.9 138.042 275.305 138.259 224.872 138.187L170.953 138.097C163.47 138.088 148.549 137.679 141.891 138.567C137.369 139.184 133.16 141.225 129.875 144.395C122.743 151.361 124.405 170.706 124.402 180.577L124.412 220.338L124.475 348.787C142.288 330.143 159.986 311.389 177.569 292.527C192.208 276.932 197.793 282.375 211.062 295.855C216.247 301.122 222.136 306.821 227.445 312.066C237.659 302.952 256.111 282.524 266.174 272.027C273.013 265.267 289.533 244.418 298.353 245.173C310.137 246.18 329.306 273.32 339.198 281.044C340.996 282.448 341.854 285.062 341.729 287.187C340.348 289.79 341.103 289.224 338.825 290.512C330.545 290.424 307.002 262.146 297.828 254.545C292.901 258.344 282.998 269.135 278.259 274.051L239.036 314.855C235.759 318.203 232.661 321.728 227.466 321.713C215.734 321.679 201.069 294.315 191.73 294.203C186.672 296.391 132.218 355.218 124.441 363.448C124.033 386.506 122.632 402.91 151.489 401.845C156.834 401.648 163.16 401.836 168.583 401.827L226.969 401.709C236.99 401.689 247.336 401.511 257.348 401.88C259.933 401.975 261.174 402.57 262.821 404.466C263.537 407.26 263.663 406.242 262.871 408.802C260.546 411.094 256.806 411.973 253.61 411.997C239.132 412.108 224.545 411.801 210.07 411.805L165.745 411.939C149.411 412.02 127.437 414.691 118.427 397.818C111.828 385.458 114.16 360.707 114.164 346.383L114.167 269.096L114.158 195.945C114.143 182.711 113.765 169.269 114.517 156.075C115.531 138.277 128.33 129.064 145.058 127.87Z" /><path d="M401.734 244.128C409.895 244.687 408.921 252.611 409.03 259.158C409.375 279.814 417.517 297.328 437.612 305.125C442.507 307.025 456.342 310.255 454.786 316.278C451.21 320.715 444.358 322.348 438.852 324.251C425.013 328.58 416.577 337.371 412.488 351.321C410.763 357.204 409.569 367.785 402.837 369.987C399.05 368.69 400.571 364.927 395.55 364.668C389.964 367.199 313.051 447.702 301.693 459.076C281.27 472.205 266.391 444.804 276.919 434.453C310.829 401.112 345.019 362.726 379.913 330.936C370.719 324.301 365.096 324.175 355.08 319.754C353.007 318.839 351.264 317.624 350.507 315.429C351.585 311.132 357.879 308.49 361.712 307.491C386.247 301.098 395.811 282.755 398.251 258.679C398.75 253.75 398.402 248.272 401.734 244.128Z" /><path fill="white" d="M365.794 358.377C369.253 361.873 372.771 365.311 376.346 368.69L323.598 422.609C317.431 428.958 300.062 447.594 293.73 452.363C286.02 452.596 279.998 446.097 285.709 439.57C294.236 429.823 303.816 420.675 312.972 411.481L365.794 358.377Z" /><path fill="white" d="M402.598 283.34C403.362 284.107 407.162 290.805 407.714 291.934C413.912 304.612 421.876 309.065 434.456 314.963C416.88 322.548 410.773 329.733 403.208 346.804C401.923 345.565 399.834 340.213 398.674 338.206C391.285 325.431 383.819 320.889 371.232 315.037C389.057 306.438 394.504 301.042 402.598 283.34Z" /><path fill="white" d="M386.082 338.107C388.816 340.024 392.096 347.872 393.596 351.158C391.572 353.256 384.793 360.587 382.555 361.102L373.074 351.536C376.766 347.337 382.085 342.19 386.082 338.107Z" /><path d="M186.185 183.551C199.957 180.78 213.364 189.712 216.116 203.491C218.868 217.27 209.921 230.668 196.141 233.403C182.388 236.132 169.023 227.203 166.276 213.45C163.529 199.696 172.438 186.316 186.185 183.551Z" /><path fill="white" d="M188.13 193.302C193.608 192.179 199.266 194.095 202.934 198.316C206.603 202.537 207.713 208.408 205.838 213.677C203.963 218.947 199.395 222.797 193.885 223.751C185.547 225.195 177.592 219.679 176.02 211.361C174.448 203.043 179.84 195.003 188.13 193.302Z" /><path d="M446.934 345.576C452.415 346.78 471.643 365.83 473.021 370.861C472.763 373.657 471.68 374.319 469.693 376.39C468.223 376.209 466.155 375.871 465.173 374.808C460.866 370.145 443.734 356.194 443.257 350.718C443.823 348.03 444.879 347.459 446.934 345.576Z" /><path d="M466.074 251.777C467.98 251.642 468.763 251.966 470.579 252.44C472.656 254.393 472.106 253.386 472.601 256.257C470.735 262.85 455.725 276.214 450.008 281.81C447.465 282.105 447.167 282.031 444.806 281.028C442.668 278.059 443.125 276.248 445.375 273.283C451.17 265.647 459.235 258.377 466.074 251.777Z" /><path d="M469.782 305.453C476.048 305.398 492.186 304.144 497.168 307.567C498.409 308.42 498.225 309.471 498.375 310.879C497.46 313.407 496.939 313.75 494.947 315.605C488.228 315.575 468.327 318.372 466.462 310.693C467.179 307.863 467.668 307.524 469.782 305.453Z" /></svg>