<?xml version='1.0' encoding='utf-8'?>
<svg xmlns="http://www.w3.org/2000/svg" width="512.0" height="512.0" viewBox="0.0 512.0 512.0 512.0"><path d="M154.859 562.033C165.106 561.441 177.968 561.789 188.525 561.782L249.233 561.762L288.246 561.776C298.331 561.785 312.176 559.694 319.562 566.907C331.28 578.351 342.65 590.153 354.006 601.977C364.365 612.761 375.455 623.177 385.037 634.631C388.218 638.506 387.65 651.342 387.543 656.313C386.968 683.093 387.955 709.917 387.236 736.671C387.195 738.211 385.214 739.31 384.129 739.997C380.879 740.209 382.092 740.486 379.343 739.197C376.236 735.561 377.424 710.913 377.439 704.641L377.585 642.802C302.239 640.779 309.187 653.088 309.705 571.843L206.463 571.761C190.185 571.732 173.506 571.206 157.321 572.344C151.287 572.768 145.126 579.309 144.641 585.241C143.563 598.432 143.998 612.114 144.004 625.352L144.06 705.36L144.116 818.41C144.124 832.424 143.974 846.449 143.951 860.447C143.94 866.995 144.181 873.103 148.891 878.082C151.707 881.06 154.406 882.184 158.494 882.444C175.208 883.505 192.27 883.046 209.051 883.039L294.738 883.063C308.468 883.034 322.252 882.775 335.982 882.795C339.649 882.8 343.943 883.461 346.573 886.212C347.259 888.709 347.184 887.715 346.245 890.441C342.322 895.029 311.37 893.206 303.231 893.183L245.141 893.248L191.533 893.285C169.146 893.331 134.873 899.371 134.162 866.106C133.853 851.64 134.273 837.029 134.271 822.539L134.245 729.087L134.259 641.048C134.212 623.88 134.009 606.7 134.24 589.534C134.436 574.973 141.16 566.362 154.859 562.033Z" /><path fill="white" d="M319.571 581.795C322.305 583.72 333.069 594.855 336.049 597.973C346.769 609.19 358.913 620.764 369.038 632.399C312.579 633.709 319.068 639.112 319.571 581.795Z" /><path d="M373.325 758.282C385.826 757.508 383.333 772.08 388.191 781.715C396.276 797.751 407.411 807.426 425.208 811.387C429.166 812.268 436.902 814.155 437.094 819.235C436.996 827.3 419.991 827.163 414.598 830.709C410.252 833.295 406.821 834.284 402.956 837.827C387.628 846.208 384.259 876.782 380.044 881.192L379.264 881.291C367.567 882.717 370.138 869.579 366.378 860.067C364.381 855.015 360.332 849.809 358.954 847.218C349.434 829.309 323.671 827.987 318.289 823.299C317.152 822.324 316.473 820.919 316.416 819.423C316.13 811.831 331.725 811.597 337.248 808.981C355.679 800.252 364.903 787.672 369.238 767.922C369.88 765 371.272 760.752 373.325 758.282Z" /><path fill="white" d="M376.216 780.699C378.115 782.554 380.364 788.573 381.842 791.325C389.808 806.156 400.904 813.023 415.67 819.227C394.409 828.449 385.35 837.949 376.804 859.105C376.567 858.775 372.344 850.095 371.61 848.768C362.487 832.288 354.522 826.633 337.717 819.267C358.712 810.523 367.445 801.109 376.216 780.699Z" /><path d="M274.516 670.686C277.487 670.491 280.12 670.56 282.685 672.208C286.976 674.966 325.188 713.668 325.548 716.372C325.773 718.062 325.608 719.576 324.348 720.826C323.411 721.761 322.139 722.281 320.816 722.272C316.049 722.211 282.711 685.808 277.605 680.575C270.077 687.541 241.454 722.651 234.264 723.11C230.314 723.362 227.42 719.86 224.812 717.375L215.633 708.055C205.222 717.944 195.504 729.269 185.503 739.587C183.254 741.906 176.982 744.948 174.538 741.283C174.421 735.694 180.157 729.786 184.888 725.434C191.961 718.925 206.645 699.57 216.118 698.29C220.211 697.737 230.605 709.099 233.832 712.315C240.903 705.159 268.757 674.183 274.516 670.686Z" /><path d="M206.327 632.806C218.628 631.345 229.798 640.098 231.323 652.394C232.848 664.69 224.155 675.908 211.87 677.497C199.494 679.098 188.178 670.325 186.642 657.938C185.106 645.551 193.936 634.278 206.327 632.806Z" /><path fill="white" d="M206.239 642.589C212.981 641.126 219.672 645.257 221.387 651.94C223.101 658.624 219.225 665.467 212.612 667.431C208.108 668.769 203.233 667.537 199.905 664.22C196.577 660.904 195.327 656.033 196.648 651.523C197.968 647.013 201.648 643.586 206.239 642.589Z" /><path d="M177.314 772.163C207.814 771.054 241.426 772.634 272.294 771.985C281.416 771.794 317.869 771.545 324.13 772.752C326.543 774.673 325.889 773.667 326.721 776.491C326.272 779.401 326.06 779.685 323.985 781.792C317.336 782.512 305.254 782.197 298.093 782.205L251.13 782.249L204.05 782.267C198.261 782.266 181.84 782.65 176.915 781.408C174.555 779.359 175.177 780.407 174.448 777.506C174.909 774.606 175.259 774.306 177.314 772.163Z" /><path d="M177.782 808.836C202.145 808.337 227.598 809.074 252.062 808.725C259.667 808.616 290.511 808.201 296.289 809.587C298.625 811.441 297.978 810.455 298.767 813.275C298.292 816.238 297.929 816.525 295.732 818.619C282.027 818.797 181.697 819.894 176.36 817.624C173.253 814.171 174.395 811.658 177.782 808.836Z" /><path d="M177.799 845.695C188.292 845.484 262.465 844.098 266.108 847.168C267.171 848.065 267.741 848.973 267.709 850.416C267.657 852.77 266.185 854.221 264.573 855.721C254.48 856.14 181.083 857.224 175.994 854.303C173.261 850.673 174.365 848.336 177.799 845.695Z" /></svg>