<?xml version='1.0' encoding='utf-8'?>
<svg xmlns="http://www.w3.org/2000/svg" width="512.0" height="512.0" viewBox="512.0 0.0 512.0 512.0"><path d="M748.735 182.139C748.633 174.158 746.055 147.075 752.796 143.244C755.609 143.241 754.488 142.973 757.053 144.43C760.167 148.094 758.921 175.196 758.898 182.19C781.011 182.484 810.515 184.465 819.164 157.611C820.558 153.285 821.297 144.893 826.634 144.215C828.279 144.006 830.17 144.573 831.315 146.058C834.053 152.377 834.624 159.46 838.884 165.293C846.635 177.736 857.904 177.084 866.342 183.41C870.632 191.267 849.821 193.882 844.163 198.768C836.379 205.491 834.231 222.878 828.265 226.644C820.322 225.73 816.942 197.475 802.477 194.092C793.364 191.961 790.081 191.849 780.497 191.972C743.488 192.449 706.494 191.73 669.491 192.217C657.128 192.38 650.983 201.983 650.799 213.499C650.529 234.623 650.985 255.816 650.894 276.966L650.736 330.007C650.723 339.716 650.253 349.687 650.928 359.37C651.2 363.256 651.859 367.401 653.506 370.965C655.337 374.928 659.025 377.461 663.026 378.896C666.09 379.994 669.439 380.177 672.664 380.308C699.783 381.414 727.398 380.233 754.577 380.254C779.885 380.273 806.662 381.575 831.798 380.118C834.718 379.949 837.372 379.469 839.995 378.116C843.995 376.054 847.701 371.974 849.005 367.613C851.757 358.408 850.218 345.442 850.23 335.753C850.247 322.409 849 220.814 851.178 215.717C851.996 213.803 852.752 213.526 854.545 212.838C857.251 213.104 857.686 213.651 859.815 215.421C860.45 220.496 860.175 228.511 860.149 233.864C867.515 233.778 874.981 233.575 882.337 233.636C888.359 233.687 897.024 232.391 900.672 237.928C900.477 239.937 899.627 242.955 897.327 243.222C885.637 244.576 872.013 243.879 860.19 243.891C859.971 262.437 860.153 281.343 860.144 299.918C869.715 299.804 879.536 299.617 889.122 299.694C893.664 299.731 898.415 299.904 900.716 304.29C900.583 306.622 900.396 306.855 898.829 308.609C894.68 310.956 867.371 310.062 860.182 310.127C860.058 325.113 860.343 340.201 860.286 355.168C860.247 365.423 859.156 375.019 851.256 382.451C842.728 390.473 834.285 390.359 823.598 390.227C823.688 398.058 826.005 424.821 819.957 428.822C817.164 428.931 818.284 429.113 815.522 427.65C812.256 423.628 813.686 397.359 813.751 390.302C795.819 389.957 776.922 390.261 758.913 390.26C758.833 397.48 759.895 421.595 757.806 426.796C756.307 428.518 756.082 428.652 753.851 429.133C745.384 426.987 748.692 397.948 748.822 390.295C730.627 390.062 711.947 390.28 693.711 390.277C693.683 398.14 694.553 419.802 693.036 426.252C691.086 428.59 692.054 427.813 688.957 429.031C680.636 427.424 683.841 397.557 683.94 390.265C680.702 390.302 677.464 390.322 674.226 390.325C650.959 390.322 640.701 379.117 640.634 355.623C640.591 340.5 640.761 325.2 640.865 310.062C632.008 309.839 611.228 310.952 603.917 309.302C602.003 307.874 601.858 307.639 601.157 305.353C602.676 296.826 632.029 299.846 640.686 299.806C641.053 281.554 640.781 262.16 640.835 243.845C633.688 243.747 626.426 244.171 619.294 244.026C613.266 243.904 604.593 245.376 601.131 239.598C601.243 237.17 601.396 237.101 603.005 235.134C606.815 233.005 633.564 233.8 640.771 233.732C640.723 228.55 640.702 223.367 640.708 218.184C640.804 185.872 655.614 181.922 683.937 182.138C684.023 173.759 681.67 148.856 686.213 143.182C687.928 143.139 691.09 143.191 691.902 144.551C695.435 150.462 693.823 174.791 693.773 182.159C711.897 182.415 730.569 182.162 748.735 182.139Z" /><path fill="white" d="M826.946 164.817C827.821 165.683 829.974 169.605 830.881 170.931C836.613 179.312 839.405 181.298 848.076 185.75C836.564 191.265 832.843 195.059 827.479 206.464C826.952 205.923 823.648 200.571 823.022 199.665C817.464 191.625 814.321 189.915 806.159 185.766C817.635 180.22 821.162 175.652 826.946 164.817Z" /><path d="M727.538 245.352C730.881 245.075 735.114 244.772 736.694 248.723C746.664 273.665 757.58 298.603 766.332 323.946C766.865 325.49 765.489 327.077 764.571 328.138C761.654 329.203 762.887 329.117 759.899 328.533C754.86 325.037 751.622 313.319 749.281 307.119L734.422 307.006L712.723 307.118C710.523 313.129 707.246 325.21 702.23 328.463C699.199 328.987 700.424 329.133 697.6 327.913C695.078 323.649 697.509 317.414 699.633 313.326C705.591 301.864 720.776 251.864 727.538 245.352Z" /><path fill="white" d="M730.516 261.472C733.376 265.035 743.221 291.477 745.374 297.069L731.663 297.099L716.851 297.124C721.215 285.167 725.77 273.282 730.516 261.472Z" /><path d="M884.085 86.1298C885.222 86.239 888.181 86.5112 888.859 87.2894C894.744 94.8956 893.92 104.323 901.004 111.969C907.319 118.784 923.553 118.633 924.768 127.863C922.189 132.854 908.296 134.713 901.972 140.503C893.06 148.663 894.479 161.122 888.273 166.969C886.842 166.954 883.592 166.863 882.827 165.711C878.319 157.897 877.826 150.951 872.588 143.015C867.109 134.713 847.568 134.413 847.697 125.473C851.422 119.772 865.002 118.401 871.645 111.528C878.86 104.064 878.677 91.0422 884.085 86.1298Z" /><path fill="white" d="M886.063 106.551C892.225 117.361 895.231 120.939 906.183 126.551C894.81 132.413 891.996 136.108 886.264 147.052C879.349 135.358 878.007 133.258 866.396 126.574C877.026 121.319 880.578 116.302 886.063 106.551Z" /><path d="M788.58 245.015C791.577 245.212 792.832 244.897 795.118 246.779C798.312 252.366 795.714 313.376 795.98 324.533C796.022 326.305 794.366 327.836 793.252 329.116C791.003 329.129 790.651 328.955 788.451 328.324C787.154 327.021 786.11 326.25 786.092 324.146C785.885 299.346 785.717 274.442 786.373 249.656C786.416 248.015 787.617 246.288 788.58 245.015Z" /></svg>