<?xml version='1.0' encoding='utf-8'?>
<svg xmlns="http://www.w3.org/2000/svg" width="512.0" height="512.0" viewBox="1024.0 512.0 512.0 512.0"><path d="M1378.72 591.413C1378.93 591.409 1379.13 591.406 1379.34 591.403C1386.48 591.39 1393.33 594.216 1398.38 599.26C1403.37 604.272 1406.16 611.066 1406.13 618.14C1406.02 631.978 1392.2 644.491 1383.53 654.873L1349.84 695.309L1308.67 744.329C1294.94 760.704 1286.56 774.237 1267.19 783.64C1266.05 784.19 1253.64 797.22 1251.62 799.247C1256.67 839.104 1227.87 845.851 1197.84 855.886C1197.27 856.045 1196.69 856.199 1196.11 856.349C1184.43 859.385 1172.96 859.428 1171.23 844.415C1169.07 825.623 1172.74 802.045 1183.76 786.385C1191.56 775.283 1201.6 770.921 1214.48 768.881C1218.78 759.456 1221.62 755.858 1228 747.816C1228.72 739.874 1229.45 736.296 1234.75 729.977C1274.46 682.604 1319.43 638.83 1364.09 596.165C1367.27 593.128 1374.55 591.927 1378.72 591.413Z" /><path fill="white" d="M1378.35 603.246C1379.26 603.258 1380.17 603.299 1381.08 603.444C1385.5 604.154 1389.34 606.508 1391.84 610.243C1394.15 613.682 1394.79 618.289 1393.72 622.276C1392.12 628.212 1286.99 753.529 1277.68 763.268C1274.73 766.349 1271.3 768.232 1267.57 770.229L1260.93 764.329C1256.14 760.232 1242.94 749.478 1240.09 744.97C1240.09 740.568 1246.93 732.909 1249.77 729.559C1281.1 692.703 1316.28 659.378 1350.68 625.445C1357.8 618.414 1368.98 605.33 1378.35 603.246Z" /><path fill="white" d="M1211.02 781.058C1212.08 780.931 1213.14 780.838 1214.2 780.777C1220.23 780.465 1235.23 795.752 1240.3 800.434C1241.91 827.483 1231.39 832.953 1207.32 840.657C1201.9 842.548 1189.85 847.698 1185.03 846.424C1181.93 843.907 1181.74 838.939 1181.89 835.189C1182.81 813.526 1186.75 787.543 1211.02 781.058Z" /><path fill="white" d="M1234.41 757.451C1241.83 763.033 1250.18 770.726 1257.27 776.948L1246.99 787.531L1245.78 788.264C1242.26 787.252 1228.6 774.394 1225.39 771.477C1227.88 766.788 1231.4 761.889 1234.41 757.451Z" /><path d="M1144.52 591.02C1146.35 591.09 1149.93 591.331 1150.97 592.825C1157.56 602.324 1157.86 615.994 1165.81 625.966C1175.53 638.168 1191.25 637.117 1203 644.751C1205.13 646.132 1205.2 647.916 1205.3 649.966C1201.31 660.139 1180.13 658.971 1168.69 669.289C1155.26 681.402 1158.83 701.164 1148.21 707.526C1145.61 707.389 1142.06 706.953 1140.69 704.311C1135.24 693.858 1134.68 681.627 1126.74 672.164C1116.74 660.237 1099.17 661.462 1088.19 652.396C1087.24 651.497 1087.09 649.442 1087.49 648.352C1089.75 642.233 1096.95 641.115 1102.6 639.225C1108.97 637.095 1117.9 634.386 1123 629.893C1133.61 620.56 1134.9 606.335 1140.41 594.242C1140.87 593.233 1143.56 591.602 1144.52 591.02Z" /><path fill="white" d="M1146.09 611.104C1147.24 613.165 1150.12 620.205 1151.33 622.749C1159.2 639.338 1168.4 643.506 1184.58 649.142C1181.11 650.341 1177.69 651.682 1174.33 653.161C1156.89 660.821 1152.74 671.241 1146.29 687.718C1145.2 684.5 1143.97 681.333 1142.6 678.227C1134.76 660.397 1125.27 655.691 1108.17 649.112C1131.15 641.002 1137.9 633.789 1146.09 611.104Z" /><path d="M1099.99 725.246C1100.36 725.232 1100.72 725.224 1101.09 725.223C1112.35 725.247 1108.91 737.789 1115.3 745.498C1118.98 751.615 1132.31 752.132 1136.22 757.082C1143.26 765.987 1121.47 769.778 1117.42 773.291C1109.53 780.133 1112.35 789.082 1105.31 795.119C1093.19 795.782 1096.95 781.09 1089.39 774.038C1083.71 768.734 1070.39 768.318 1068.32 761.16C1069.38 751.944 1082.02 753.499 1088.64 747.303C1095.59 740.798 1094.27 730.587 1099.99 725.246Z" /><path fill="white" d="M1102.81 746.207C1107.64 754.347 1109.2 755.8 1117.53 760.52C1109.68 764.482 1107.54 766.649 1103.17 774.185C1099.58 771.937 1097.69 765.621 1088.21 760.372C1096.28 756.455 1098.58 754.043 1102.81 746.207Z" /><path d="M1121.48 848.773C1152.83 849.827 1157.35 861.964 1182.24 875.854C1195.29 882.128 1213.95 884.386 1227.32 878.077C1233.24 875.282 1239.74 867.193 1246.21 870.533C1256.85 882.499 1222.78 891.511 1215.25 892.464C1181.64 896.182 1169.65 879.645 1143.74 865.004C1134.91 860.014 1117.78 857.921 1108.48 862.429C1103.52 864.836 1096.46 871.712 1090.65 869.034C1088.49 866.627 1089.08 867.791 1088.4 864.618C1090.44 853.385 1112.05 849.457 1121.48 848.773Z" /></svg>