<?xml version='1.0' encoding='utf-8'?>
<svg xmlns="http://www.w3.org/2000/svg" width="512.0" height="512.0" viewBox="1024.0 512.0 512.0 512.0"><path d="M1126.31 770.54C1160.91 770 1195.58 770.41 1230.18 770.413C1250.71 770.415 1271.85 769.349 1292.29 770.586C1296.27 770.827 1301.02 771.338 1304.71 772.969C1309.28 774.994 1313.2 780.502 1314.78 785.109C1317.41 792.776 1316.81 881.424 1315.94 894.822C1315.69 898.586 1315.4 902.519 1313.64 905.925C1310.22 912.558 1304.66 915.389 1297.79 917.564C1287.9 918.192 1275.26 917.816 1265.07 917.818L1205.77 917.814L1154.81 917.806C1142.56 917.817 1110.32 921.299 1108.29 903.071C1105.58 878.725 1106.64 850.458 1106.86 825.6C1107.06 803.27 1100.07 777.568 1126.31 770.54Z" /><path fill="white" d="M1127.3 780.293C1182.16 778.908 1238.14 781.137 1293.11 780.366C1302.82 780.229 1306.68 788.086 1306.6 796.628C1306.28 828.567 1306.55 860.556 1306.52 892.497C1306.5 900.813 1304.08 904.978 1296.2 907.679C1278.9 908.003 1130.14 909.168 1124.1 906.764C1121.64 905.784 1119.09 903.357 1118.11 900.89C1114.62 892.077 1116.84 831.776 1116.84 817.278C1116.84 809.962 1115.99 802.403 1116.44 795.129C1116.6 792.654 1117.03 789.998 1118.07 787.73C1120.05 783.451 1123.15 781.88 1127.3 780.293Z" /><path d="M1247.3 832.707C1250.72 832.894 1253.52 833.426 1255.85 836.015C1261.95 842.774 1282.89 858.81 1283.12 867.629C1281.9 870.097 1282.7 869.284 1279.87 870.533C1276.51 870.521 1275.42 869.227 1273.18 866.976C1265.23 858.98 1257.37 850.926 1249.14 843.224C1241.6 850.329 1216.35 880.315 1208.14 881.083C1203.93 881.477 1189.19 866.953 1185.32 863.74C1175.98 871.452 1165.9 883.631 1156.71 891.868C1155.51 892.945 1154.15 893.13 1152.6 893.144C1149.89 891.829 1150.7 892.656 1149.42 890.128C1149.45 881.858 1176.64 856.555 1184.62 854.471C1189.94 853.081 1203.86 866.791 1208.5 870.755C1214.89 863.962 1241.32 835.833 1247.3 832.707Z" /><path d="M1173.25 799.979C1184.27 799.328 1193.78 807.626 1194.64 818.636C1195.49 829.645 1187.37 839.31 1176.38 840.365C1169.09 841.065 1161.99 837.773 1157.81 831.756C1153.63 825.739 1153.03 817.935 1156.23 811.346C1159.43 804.757 1165.94 800.41 1173.25 799.979Z" /><path fill="white" d="M1171.98 809.937C1175.74 809.038 1179.69 810.25 1182.29 813.101C1184.9 815.953 1185.76 819.995 1184.53 823.659C1183.3 827.323 1180.18 830.031 1176.38 830.733C1170.71 831.779 1165.25 828.119 1164.05 822.479C1162.86 816.84 1166.38 811.277 1171.98 809.937Z" /><path d="M1078.18 571.163C1134.07 570.278 1192.59 571.011 1248.65 571.054L1305.12 571.088C1317.85 571.079 1328.02 568.687 1339.35 575.015C1346.56 579.041 1359.49 596.107 1345.21 598.538C1337.2 595.563 1344.54 581.577 1323.86 581.422C1307.58 581.299 1289.51 581.268 1273.15 581.27L1175.14 581.287L1110.66 581.26C1100.32 581.26 1076.6 579.021 1069.62 585.636C1063.41 593.196 1064.28 617.51 1065.1 626.475C1068.2 660.461 1052.49 676.932 1095.07 676.126L1250.85 676.132L1303.86 676.054C1313.2 676.051 1329.59 678.343 1336.84 672.435C1338.74 670.889 1344.32 653.086 1350.92 664.203C1351.38 667.986 1349.77 671.158 1347.69 674.216C1343.38 680.67 1336.57 685.028 1328.91 686.235C1325.65 686.769 1309.5 686.335 1305.1 686.329L1247.91 686.295L1138.54 686.3C1119.36 686.333 1099.89 686.789 1080.89 686.198C1050.36 685.039 1055.54 656.823 1055.48 635.021C1055.45 621.333 1055.06 605.915 1055.84 592.3C1056.53 580.284 1066.69 572.999 1078.18 571.163Z" /><path d="M1392.55 588.583C1403.56 588.852 1400.37 603.542 1408.39 612.683C1414.92 620.126 1432.72 623.702 1434.09 629.999C1432.49 637.345 1419.61 636.538 1412.04 643.094C1401.97 651.799 1402.57 664.678 1397.69 670.905C1384.99 670.91 1388.73 652.466 1378.87 644.091C1371.79 638.085 1356.79 636.993 1355.25 629.07C1357.3 623.841 1371.54 621.82 1378.06 616.272C1387.75 608.031 1387.49 594.05 1392.55 588.583Z" /><path fill="white" d="M1394.68 608.99C1394.9 609.228 1398.36 614.781 1398.82 615.458C1404.47 623.676 1407.65 625.569 1416.09 629.816C1405.06 635.016 1400.32 640.364 1394.89 650.99C1388 638.87 1385.75 636.317 1373.89 629.888C1385.23 623.916 1388.88 620.199 1394.68 608.99Z" /><path d="M1099.2 609.894C1106.41 609.399 1117.55 609.727 1124.99 609.72L1172.62 609.679C1192.02 609.666 1226.81 608.553 1245.23 610.056C1248 612.029 1247.24 610.987 1248.38 613.899C1248.15 616.784 1247.65 617.239 1245.88 619.588C1236.5 620.054 1224.06 619.69 1214.51 619.691L1154.01 619.693L1120.21 619.691C1114.82 619.695 1104.76 619.969 1099.88 619.23C1097.2 617.188 1097.85 618.189 1096.75 615.443C1096.87 612.712 1097.54 612.127 1099.2 609.894Z" /><path d="M1212.77 700.447C1216.74 701.09 1215.59 700.403 1218.2 702.617C1220.92 707.895 1219.59 731.199 1219.61 738.725C1223.65 734.545 1228.36 727.64 1234.44 729.554C1236.57 732.071 1236.04 730.874 1236.53 734.061C1235.4 738.737 1220.5 752.529 1216.33 755.776C1209.53 755.228 1200.15 742.442 1195.18 737.674C1193.24 735.817 1193.52 734.111 1193.8 731.748C1195.87 729.271 1194.82 729.991 1197.76 728.912C1202.65 729.345 1206.61 734.72 1210.04 738.384C1210.37 729.417 1208.04 705.825 1212.77 700.447Z" /><path d="M1100.16 640.153C1109.63 640.134 1171.65 638.67 1175.06 641.648C1176.21 642.651 1176.63 643.658 1176.58 645.211C1176.52 647.27 1175.07 648.519 1173.61 649.737C1163.93 649.783 1103.97 651.039 1098.48 648.701C1095.3 644.985 1096.86 642.902 1100.16 640.153Z" /><path d="M1309.38 603.449C1312.1 603.843 1312.56 603.856 1314.72 605.492C1317.89 610.726 1315.87 643.026 1315.64 650.74C1315.61 651.505 1313.87 653.698 1313.26 654.416C1310.76 654.353 1310.46 654.294 1308.23 653.184C1307.52 652.398 1306.55 651.343 1306.54 649.652C1306.44 635.669 1305.65 619.956 1307.23 606.161C1308.13 605.03 1308.85 604.126 1309.38 603.449Z" /></svg>