<?xml version='1.0' encoding='utf-8'?>
<svg xmlns="http://www.w3.org/2000/svg" width="512.0" height="512.0" viewBox="1024.0 0.0 512.0 512.0"><path d="M1281.09 279.947C1284.57 279.665 1288.02 279.689 1291.52 279.711C1324.05 279.915 1356.86 279.208 1389.35 279.994C1404.27 280.355 1416.79 290.859 1420.31 305.123C1421.55 310.145 1421.36 316.558 1421.47 321.779C1421.31 352.16 1421.98 382.657 1421.11 413.02C1420.55 431.384 1408.54 441.281 1392.03 445.421C1375.75 446.924 1357.68 445.677 1341.23 445.694C1322.73 445.713 1303.22 447 1284.82 445.438C1279.64 444.999 1273.58 443.951 1268.98 441.414C1261.1 437.075 1255 429.047 1252.72 420.369C1250.46 411.73 1250.63 324.891 1251.83 312.408C1252.38 306.752 1253.28 300.97 1256.3 296.059C1262.03 286.732 1270.73 282.37 1281.09 279.947Z" /><path fill="white" d="M1283.19 291.164C1301.32 290.055 1320.07 290.973 1338.27 290.956C1354.05 290.941 1370.79 289.803 1386.48 291.258C1390.47 291.628 1394.83 292.486 1398.43 294.31C1403.41 296.829 1406.78 301.942 1408.44 307.147C1410.99 315.166 1410.52 397.918 1409.55 410.581C1409.26 414.321 1408.9 418.873 1407.05 422.212C1403.27 429.029 1397.35 432.047 1390.12 434.173C1356.91 436.207 1319.97 433.489 1286.42 434.169C1268.49 434.533 1262.75 420.021 1262.96 404.442C1263.37 374.389 1262.22 343.39 1263.32 313.282C1263.74 300.788 1271.79 294.009 1283.19 291.164Z" /><path d="M1335.83 314.234C1337.19 314.463 1338.74 314.865 1339.95 315.399C1343.86 317.223 1348.82 330.92 1349.58 334.736C1352.91 351.658 1378.59 351.481 1383.77 361.419C1388.13 369.798 1363.75 374.827 1358.1 379.362C1349.37 386.366 1348.25 396.941 1343.58 406.651C1341.91 409.991 1340.35 410.335 1337.14 411.381C1325.72 408.325 1327.53 391.23 1318.57 382.331C1310.75 374.569 1294.66 372.591 1289.86 365.857C1283.34 356.702 1313.6 350.801 1316.97 345.657C1326.95 336.441 1325.57 319.231 1335.83 314.234Z" /><path fill="white" d="M1336.66 333.559C1337.24 334.32 1340.32 340.759 1340.96 342.067C1347.52 355.371 1352.32 356.976 1365.27 363.283C1347.92 371.058 1344.27 374.768 1337.07 392.463C1327.06 374.772 1328.76 372.411 1308.22 363.2C1325.4 355.342 1329.54 351.152 1336.66 333.559Z" /><path d="M1099.61 124.708C1115.62 123.898 1136.81 124.477 1153.22 124.484L1252.93 124.538L1312.63 124.458C1322.93 124.44 1335.8 123.808 1345.91 125.081C1365.87 127.597 1378.74 145.342 1378.56 165.035C1378.28 193.963 1378.66 222.906 1378.52 251.828C1378.49 256.945 1375.33 258.517 1370.99 258.641C1364.08 255.103 1366.52 243.441 1366.55 236.178L1366.69 186.847C1366.7 179.995 1366.63 173.009 1366.65 166.18C1366.71 149.22 1356.59 136.616 1338.94 136.423C1321.76 136.236 1304.34 136.331 1287.04 136.353L1188.78 136.389L1130.54 136.29C1114.23 136.27 1097.53 133.12 1084.92 144.847L1084.19 145.53C1080.34 150.631 1077.85 154.892 1077.68 161.367C1077.35 174.404 1077.46 187.648 1077.46 200.689L1077.45 273.744L1077.44 319.869C1077.45 333.372 1075.22 347.582 1084.8 358.061C1095.32 369.562 1115.92 366.824 1130.25 366.814L1191.44 366.748C1201.09 366.729 1222.56 364.078 1228.88 371.315C1231.04 381.52 1207.16 378.932 1201.05 378.914L1160.19 378.78C1143.58 378.764 1126.96 378.972 1110.34 378.976C1100.84 378.977 1091.98 377.763 1083.74 372.704C1062.4 359.605 1065.54 337.404 1065.53 316.025L1065.55 261.648L1065.52 197.489C1065.52 165.699 1059.55 133.099 1099.61 124.708Z" /><path d="M1122.5 188.37C1132.4 187.779 1146.17 188.183 1156.48 188.177L1219.05 188.163L1279.48 188.161C1285.93 188.161 1312.87 187.013 1316.83 190.036C1319.35 194.181 1318.56 196.539 1314.83 199.694C1309.29 200.366 1296.96 200.113 1290.97 200.115L1249.05 200.118C1209.3 200.116 1169.5 200.134 1129.75 200.062C1128.07 200.059 1123.01 199.875 1121.74 198.894C1117.38 195.526 1119.57 191.676 1122.5 188.37Z" /><path d="M1122.32 240.118C1136.88 239.24 1258.09 238.591 1263.7 241.322C1267.09 245.316 1265.33 247.893 1262.21 251.281C1218 252.8 1172.2 250.267 1127.87 251.344C1120 251.535 1116.67 246.632 1122.32 240.118Z" /><path d="M1123.6 291.257C1148.18 291.253 1172.75 291.139 1197.34 291.07C1201.53 291.058 1209.73 290.979 1208.99 297.52C1208.68 300.252 1207.33 301.49 1205.25 303.126L1152.15 303.273C1145.3 303.298 1124.76 304.587 1120.49 300.777C1118.19 296.58 1119.9 293.628 1123.6 291.257Z" /></svg>