<?xml version='1.0' encoding='utf-8'?>
<svg xmlns="http://www.w3.org/2000/svg" width="512.0" height="512.0" viewBox="0.0 0.0 512.0 512.0"><path d="M156.429 124.088C171.113 123.626 188.271 124.01 203.156 124.004L297.34 124.057L343.05 123.953C352.382 123.927 364.417 123.369 373.513 124.826C393.047 128.202 407.161 145.646 407.386 165.301C407.646 187.957 407.203 210.381 407.465 233.02C407.517 237.497 407.879 243.307 407.568 247.66C407.469 249.227 406.788 250.701 405.66 251.792C402.606 254.776 397.088 254.031 396.351 249.512C395.381 243.568 395.715 237.09 395.747 231.048L395.957 188.292C396.02 173.521 398.161 156.495 386.927 144.998C376.201 134.022 359.295 136.318 345.032 136.322L301.738 136.353L164.114 136.253C147.897 136.359 132.999 141.317 128.795 159.961C127.261 166.761 127.949 177.194 127.94 184.461L127.95 222.218L128.135 351.795C146.217 334.144 163.387 315.375 181.288 297.525C187.776 291.055 196.103 279.633 205.927 279.941C215.821 280.251 223.202 290.93 229.893 297.118C235.823 302.932 241.599 308.963 247.4 314.796C258.32 303.885 312.236 246.389 320.822 242.219C336.757 238.915 344.269 256.285 355.597 265.151C359.429 268.151 365.079 275.255 363.812 280.491C361.635 282.751 357.612 284.164 355.066 281.816C345.104 272.632 336.066 261.145 325.486 252.733C320.363 256.844 313.045 264.738 308.227 269.664L272.348 306.473C267.957 310.983 257.202 321.65 253.481 325.445C240.905 338.274 217.812 293.365 204.87 292.24C199.657 294.001 138.159 358.904 128.197 369.041C127.956 378.488 128.397 385.737 133.956 393.84C143.428 407.646 159.409 405.828 174.171 405.906C187.284 405.974 200.575 405.899 213.773 405.885L304.722 405.82C315.793 405.818 327.199 405.48 338.206 406.194C342.392 406.465 343.321 411.358 341.988 414.817C337.298 420.045 323.674 417.948 316.775 417.936L270.748 417.979L193.187 418.02C179.701 418.021 165.805 418.403 152.421 417.421C135.752 416.55 118.703 399.944 117.101 383.353C115.811 369.997 116.337 354.468 116.333 340.821L116.306 266.982L116.305 199.57C116.307 188.348 116.269 177.168 116.561 165.934C117.179 142.112 132.559 126.495 156.429 124.088Z" /><path d="M396.745 285.728C399.7 285.695 403.55 285.653 405.212 288.741C411.77 304.155 414.247 314.707 422.933 329.079C432.279 344.543 471.715 345.504 470.541 358.57C464.99 369.814 433.436 368.013 421.844 386.623C414.032 399.165 412.802 406.138 407.698 420.53C406.029 425.238 405.198 426.065 401.21 428.267C398.978 428.259 395.243 427.936 394.131 425.991C386.815 413.199 386.102 398.401 376.401 386.017C363.316 369.315 344.744 371.29 329.948 361.249C328.557 360.306 327.826 358.415 327.747 356.624C331.188 345.757 356.883 346.238 370.567 334.516C388.591 319.076 386.08 293.607 396.745 285.728Z" /><path fill="white" d="M399.053 306.505C400.42 308.025 404.547 320.317 406.187 323.68C416.472 344.781 429.057 349.831 449.525 356.984C417.967 367.917 410.936 376.553 399.466 407.399C397.683 404.097 394.491 395.151 392.259 390.693C381.789 369.788 369.886 364.067 349.209 357.039C380.494 346.47 388.37 337.364 399.053 306.505Z" /><path d="M195.789 175.196C211.533 172.249 226.657 182.711 229.458 198.485C232.259 214.259 221.661 229.291 205.865 231.946C190.274 234.568 175.484 224.134 172.719 208.564C169.955 192.994 180.249 178.105 195.789 175.196Z" /><path fill="white" d="M199.448 186.476C208.831 185.638 217.14 192.51 218.079 201.885C219.018 211.26 212.237 219.644 202.874 220.684C196.728 221.366 190.689 218.693 187.061 213.685C183.433 208.676 182.774 202.103 185.337 196.474C187.9 190.845 193.289 187.027 199.448 186.476Z" /></svg>