<?xml version='1.0' encoding='utf-8'?>
<svg xmlns="http://www.w3.org/2000/svg" width="512.0" height="512.0" viewBox="512.0 512.0 512.0 512.0"><path d="M861.312 723.915C904.773 721.262 942.217 754.213 945.121 797.668C948.026 841.124 915.3 878.767 871.873 881.924C828.088 885.107 790.076 852.045 787.148 808.232C784.219 764.419 817.494 726.59 861.312 723.915Z" /><path fill="white" d="M862.382 735.152C899.746 733.098 931.737 761.65 933.936 799.015C936.135 836.38 907.714 868.489 870.367 870.834C832.815 873.192 800.498 844.573 798.287 807.002C796.076 769.432 824.813 737.218 862.382 735.152Z" /><path d="M865.492 762.841C876.888 765.154 874.448 781.516 883.601 789.211C890.281 794.828 909.026 796.087 907.243 805.828C903.301 812.388 889.439 813.48 883.091 819.255C874.185 827.357 876.795 840.169 867.415 845.473C856.301 842.752 858.52 828.393 850.669 820.209C844.374 813.646 829.901 812.408 826.036 806.514C820.056 797.397 846.211 793.878 849.224 789.166C857.923 780.948 856.385 767.49 865.492 762.841Z" /><path fill="white" d="M866.364 781.445C872.818 794.553 874.616 797.792 888.664 803.956C875.495 809.858 872.938 813.136 866.706 825.636C865.384 824.691 864.446 822.553 863.569 821.099C857.023 810.255 855.183 809.114 844.464 803.989C857.601 797.925 860.467 794.593 866.364 781.445Z" /><path d="M617.227 585.307C628.147 584.373 650.432 585.028 661.941 585.032L749.907 585.06L836.754 585.006C851.853 585.002 867.663 584.672 882.726 585.465C887.492 585.716 892.53 588.261 896.314 590.767C900.536 592.889 907.457 603.974 907.347 608.315C907.049 620.03 909.861 705.23 905.972 710.601C893.77 716.674 896.588 695.897 896.609 688.999L896.74 640.511C896.758 631.976 897.048 622.208 896.155 613.796C895.786 610.316 893.764 604.346 891.201 601.914C886.988 597.916 882.427 596.959 876.818 596.912C858.003 596.755 839.142 596.835 820.337 596.843L713.941 596.843L652.489 596.796C641.235 596.791 629.174 596.437 618.248 597.325C607.823 598.732 603.624 606.665 603.346 616.22C602.817 634.387 603.114 652.439 603.113 670.521L603.099 784.094C602.698 810.366 601.771 820.278 632.421 819.377C642.304 819.087 653.811 819.355 663.794 819.349L745.081 819.303C749.867 819.301 767.66 818.672 771.054 820.305C772.328 821.618 773.441 822.88 773.596 824.789C773.748 826.661 772.958 828.327 771.637 829.615C768.17 832.998 717.728 831.211 709.565 831.189C709.742 844.708 707.59 856.592 702.061 868.939C728.466 869.867 755.226 868.613 781.645 869.143C785.86 869.228 790.447 870.46 790.753 875.232C789.478 878.461 788.176 880.125 784.447 880.094C758.762 879.875 732.753 880.557 707.1 880.177C696.18 880.015 671.548 881.571 662.527 879.482C656.546 874.614 660.668 869.03 667.518 869.07C674.517 869.112 681.609 869.032 688.608 868.924C697.373 858.219 697.893 844.377 698.404 831.165L646.766 831.255C627.909 831.283 597.89 835.062 592.082 809.441C590.237 801.302 591.066 786.488 591.063 777.785L591.05 724.668L591.057 652.695C591.061 639.684 590.915 626.764 591.369 613.754C591.934 597.557 601.766 588.309 617.227 585.307Z" /><path d="M774.634 673.722C776.542 673.556 778.469 673.394 780.377 673.66C787.075 674.593 809.88 698.169 814.207 704.442C815.941 706.956 816.976 709.306 816.424 712.4C814.81 714.547 815.046 714.458 811.84 715.248C811.016 715.451 808.927 714.794 808.335 714.242C798.361 704.944 788.358 693.443 778.34 684.405C762.313 698.851 747.298 717.438 731.459 732.312C726.691 736.789 718.722 747.084 712.163 747.613C706.674 745.881 693.922 731.957 689.1 727.276C685.079 730.519 677.963 737.993 674.032 741.909C663.51 752.632 651.76 764.774 640.717 774.712C635.644 779.277 628.671 769.09 639.862 760.046C650.995 751.049 675.564 719.889 688.299 716.059C697.601 717.244 705.943 728.173 712.93 735.167C724.873 723.014 736.756 710.8 748.578 698.527C753.97 692.972 768.613 677.016 774.634 673.722Z" /><path d="M683.578 639.417C696.661 635.941 710.093 643.699 713.622 656.772C717.152 669.844 709.452 683.311 696.397 686.896C683.266 690.503 669.705 682.745 666.154 669.595C662.603 656.445 670.416 642.913 683.578 639.417Z" /><path fill="white" d="M686.798 649.959C691.547 648.836 696.533 650.358 699.846 653.942C703.159 657.526 704.286 662.617 702.794 667.265C701.303 671.913 697.425 675.397 692.646 676.384C685.402 677.879 678.299 673.278 676.701 666.054C675.102 658.831 679.599 651.661 686.798 649.959Z" /></svg>