<?xml version='1.0' encoding='utf-8'?>
<svg xmlns="http://www.w3.org/2000/svg" width="512.0" height="512.0" viewBox="1024.0 0.0 512.0 512.0"><path d="M1149.45 234.171C1178.5 232.905 1208.03 234.019 1237.13 234.021C1259.12 234.023 1281.81 232.626 1303.7 234.178C1307.24 234.429 1310.35 235.175 1313.5 236.822C1318.54 239.452 1322.96 244.722 1324.58 250.192C1326.85 257.866 1326.54 350.558 1325.48 362.723C1325.14 366.542 1324.51 370.064 1322.56 373.418C1318.87 379.792 1313.21 382.777 1306.3 384.562C1280.82 386.124 1251.27 384.771 1225.38 384.774C1202.01 384.776 1174.87 386.23 1151.9 384.63C1148.09 384.365 1144.54 383.582 1141.18 381.716C1135.9 378.782 1131.99 373.32 1130.42 367.536C1128.34 359.875 1128.87 268.288 1129.74 257.262C1130.06 253.08 1130.5 249.32 1132.66 245.646C1136.5 239.141 1142.37 236.063 1149.45 234.171Z" /><path fill="white" d="M1151.31 244.007C1199.26 242.632 1248.17 244.952 1296.2 243.82C1305.96 243.591 1315.38 246.106 1315.55 257.923C1316.02 290.455 1315.3 323.126 1315.79 355.69C1315.9 362.693 1314.45 372.928 1304.9 374.292C1254.96 374.168 1203.31 376.333 1153.45 374.566C1167.86 361.243 1183.18 344.266 1197.56 331.881C1205.91 337.657 1216.74 350.156 1224.61 351.211C1224.72 351.159 1224.83 351.104 1224.94 351.055C1233.16 347.353 1259.06 317.937 1267.48 309.852C1275.53 317.674 1284.6 328.154 1292.98 335.702C1294.5 337.069 1298.07 336.99 1300.32 336.323C1302.21 334.556 1301.76 335.478 1302.09 333.007C1300.57 327.242 1271.85 297.787 1266.8 299.547C1258.33 302.499 1230.08 333.413 1223.28 340.112C1216.82 334.683 1207.45 323.756 1199.06 322.388C1188.2 320.618 1154.64 362.172 1143.87 369.656L1142.57 369.254C1139.98 366.503 1139.15 362.152 1139.21 358.443C1139.68 325.657 1139.03 292.856 1139.3 260.078C1139.37 251.019 1142.8 246.723 1151.31 244.007Z" /><path d="M1184.24 264.577C1195.76 262.878 1206.5 270.819 1208.25 282.342C1210 293.865 1202.11 304.635 1190.59 306.438C1179.01 308.252 1168.16 300.298 1166.39 288.701C1164.63 277.105 1172.63 266.286 1184.24 264.577Z" /><path fill="white" d="M1184.54 274.31C1190.65 272.858 1196.8 276.577 1198.35 282.667C1199.9 288.757 1196.29 294.967 1190.23 296.621C1186.21 297.715 1181.92 296.56 1179 293.6C1176.08 290.64 1174.99 286.335 1176.13 282.337C1177.28 278.339 1180.49 275.271 1184.54 274.31Z" /><path d="M1215.94 122.579C1232.2 121.984 1248.31 125.865 1262.52 133.798C1285.43 146.678 1299.25 165.554 1306.43 190.722C1342.46 185.644 1371.15 207.169 1377.55 242.789C1379.96 243.09 1382.36 243.452 1384.74 243.874C1435.84 253.365 1445.13 328.761 1402.13 354.859C1387.77 363.568 1375.38 364.356 1358.98 363.978C1353.03 363.841 1345.64 365.637 1342.65 360.059C1342.7 356.915 1342.34 358.106 1343.96 355.511C1354.46 348.393 1380.83 363.089 1403.9 340.476C1414.07 330.564 1419.82 316.972 1419.86 302.768C1419.88 282.822 1408.49 263.895 1389.58 255.777C1385.32 253.949 1372.7 253.325 1370.34 250.748C1367.86 246.292 1366.55 238.521 1364.83 233.901C1355.18 207.902 1331.38 197.544 1304.99 200.601C1304.54 200.653 1299.27 200.29 1299.24 200.195C1294.06 183.032 1287.8 168.901 1274.91 156.043C1267.99 149.216 1259.88 143.7 1250.99 139.762C1231.73 131.219 1209.83 130.793 1190.24 138.58C1168.57 147.234 1151.82 163.569 1143.95 185.506C1141.53 192.246 1140.11 199.323 1137.35 205.73C1133.01 207.856 1124.02 208.2 1118.85 209.255C1050.28 223.221 1040.09 319.061 1104.29 346.898C1107.83 348.431 1111.91 349.706 1113.42 353.521C1113.31 356.604 1113.68 355.402 1111.95 358.058C1103.33 362.256 1084.39 348.383 1077.66 342.188C1061.53 327.282 1051.94 306.599 1051 284.65C1050.01 261.906 1058.2 239.72 1073.72 223.073C1089.04 206.665 1107.53 198.72 1129.81 197.839C1139.55 154.247 1170.95 125.777 1215.94 122.579Z" /><path d="M1230.61 401.124C1233.08 401.302 1233.45 401.314 1235.64 402.438C1238.67 405.991 1237.62 418.086 1237.6 423.209L1237.49 460.385C1244.66 453.041 1252.44 444.395 1260.55 438.056C1262.81 436.296 1264.5 436.309 1267.02 436.953C1268.63 438.849 1268.6 439.257 1268.73 441.777C1267.06 446.322 1239.41 473.536 1234.29 477.888C1227.95 477.858 1194.91 446.31 1197.15 437.664C1200.85 435.043 1203.14 435.843 1206.14 438.881C1213.28 446.135 1220.46 453.375 1227.61 460.627C1227.88 442.979 1226.72 423.038 1227.92 405.325C1228.02 403.917 1229.63 402.173 1230.61 401.124Z" /></svg>