<?xml version="1.0" encoding="UTF-8"?>
<svg id="_Слой_1" data-name="Слой_1" xmlns="http://www.w3.org/2000/svg" version="1.1" viewBox="0 0 109.7 22.7">
  <!-- Generator: Adobe Illustrator 29.1.0, SVG Export Plug-In . SVG Version: 2.1.0 Build 142)  -->
  <defs>
    <style>
      .st0 {
        fill: #f8ae10;
      }

      .st1 {
        fill: #56b840;
      }

      .st2 {
        fill: #207adb;
      }

      .st3 {
        fill: #0b2b4c;
      }
    </style>
  </defs>
  <g>
    <g>
      <path class="st3" d="M76.7,4.8c.6,0,1.5,0,2.2,0,0,2.4,0,4.9,0,7.3.1,1.4-.6,4.1,1.6,4.1,2.5,0,5,0,7.4,0,1,0,1.7-.7,1.8-1.6,0-.9,0-1.9,0-2.8.1-3.1,3.7-4.9,6.4-3.5,1,.5,1.7,1.4,2.1,2.5,0,.3.2.6.2,1,0,.6,0,5.2,0,5.4h-2.1c0-1.4.2-5.1-.3-6.1-.2-.5-.7-.9-1.2-1-.6-.2-1.3-.1-1.9.2-1.7.9-.8,3.7-1.2,5.3-.3,1-.9,1.8-1.8,2.4-.4.2-.8.4-1.3.4-1.2.2-2.6,0-3.8,0-1.5,0-3,0-4.5,0-.4,0-.7,0-1.1-.2-.9-.3-1.6-.8-2.1-1.7-.3-.5-.4-1-.5-1.6,0-.6,0-1.1,0-1.7v-2.8c0-.8-.1-5.1,0-5.6"/>
      <path class="st3" d="M33.8,2.8c.5,0,1.3,0,1.8,0h2.9c1.6,0,2.8.1,4,1.3,1.3,1.4,1.1,3,1.1,4.8,0,2.5-1.5,4.2-4,4.2-.8,0-.7-.9-.7-1.4,0-.8,1.2-.6,1.7-1,.5-.4.7-.8.8-1.5,0-1.8.3-4-2.2-4.2h0c-1,0-4.4-.2-5.1.2-.4.2-.7.5-.8.9-.2.7-.1,1.8-.1,2.5,0,1,0,8.1,0,8.5,0,.1-.2.2-.3.2-.3,0-.8,0-1.1-.3-.4-.3-.6-.6-.7-1.1-.1-.7,0-1.5,0-2.2v-3.3s0-2.8,0-2.8c0-.5,0-1.1,0-1.6.1-1.7,1.4-2.7,3-3"/>
      <path class="st3" d="M100.5,4c.7,0,1.4,0,2.1,0,0,.9,0,2.2,0,3v5.2c1.1-1.2,2.6-3.1,3.7-4.1.9,0,1.8,0,2.7,0-1.2,1.3-2.7,3-3.9,4.4l1.9,2.3,2,2.4h-2.7c-1-1.1-2-2.4-3-3.6-.3.3-.5.5-.7.8,0,.9,0,2,0,2.8-.7,0-1.5,0-2.1,0,0-.8,0-1.9,0-2.8v-5.3c0-.8-.1-4.5,0-5"/>
      <path class="st3" d="M49.7,8.1c.8,0,1.7,0,2.5,0,.5.6,1.6,2.4,2.1,3.1.6-.9,1.5-2.2,2.1-3.1h2.5c-1,1.5-2.2,3-3.3,4.5.4.6,3.2,4.4,3.2,4.6h0s-2.4,0-2.4,0c-.7-.8-1.6-2.3-2.2-3.2-.7,1-1.5,2.2-2.2,3.2h-2.5c1.1-1.5,2.2-3.1,3.3-4.6-.7-1-1.4-2-2.1-2.9-.3-.4-.9-1.2-1.1-1.5"/>
      <path class="st2" d="M69.9,8.1c.6,0,1.2,0,1.7.2,1,.3,1.7,1,2.2,1.9.2.4.3.9.4,1.3,0,.5,0,5.1,0,5.5-.3.2-1.5,0-1.9,0-.1,0-.2-.2-.2-.3,0-1.6,0-3.3,0-4.9,0-1-.8-1.5-1.7-1.7-2.1,0-2.2,1.2-2.2,2.9v2.5c0,.3,0,1.3-.1,1.5-.1,0-1.7,0-1.9,0,0,0-.1-.2-.1-.3.1-3.7-1.1-8.1,3.9-8.7"/>
      <path class="st1" d="M61.8,4.7c.7,0,1.4,0,2.1,0,0,2.6,0,5.7,0,8.4v2.5c0,.4,0,1.2,0,1.5-.6,0-1.5,0-2.1,0,0-.6,0-1.4,0-2,0-3.4-.1-7,0-10.4"/>
      <path class="st3" d="M45.6,8c.7,0,1.4,0,2.1,0,.1,1.6,0,3.6,0,5.3,0,.9,0,3,0,3.8-.3,0-1.7,0-2.1,0,0-.9,0-8.6,0-9.1"/>
      <path class="st3" d="M85.4,8.1c.4,0,1.7,0,2,0,0,.1,0,.4,0,.5,0,1.6,0,3.2,0,4.8,0,.3-.3.7-.5.9,0,0-.2.1-.1.1-.1.2-1.5.7-1.4.3,0-1.1-.2-5.9,0-6.6"/>
      <path class="st2" d="M34.8,9.2c.8,0,1.5,0,2.3,0,.2,0,.4,0,.5.2.2.4.2.8.2,1.2,0,.5,0,1,0,1.5,0,.2-.2.3-.4.5-.8,0-1.7,0-2.5,0-.1,0-.3,0-.3-.2-.2-.3-.2-.8-.2-1.2,0-.7-.2-1.6.4-2"/>
      <path class="st1" d="M34.9,13.8c.7,0,1.7,0,2.4,0,.8,0,.5,2.5.4,3.1,0,.2-.2.2-.4.3-.7,0-1.9,0-2.6,0-.4,0-.3-1.6-.3-1.9,0-.5,0-1.2.5-1.4"/>
      <path class="st2" d="M86.2,3.9c.7-.2,1.4.3,1.6,1s-.3,1.4-1,1.6c-.5.1-1,0-1.3-.4-.3-.4-.5-.9-.3-1.3.1-.5.5-.8,1-.9"/>
    </g>
    <path class="st3" d="M46.4,3.9c.7-.1,1.5.3,1.6,1.1.1.7-.3,1.5-1.1,1.6-.7.1-1.5-.3-1.6-1.1-.1-.7.3-1.5,1.1-1.6"/>
  </g>
  <path class="st2" d="M12.3,20.9h-6.8s-1.9,0-1.9,0c-.4,0-.9,0-1.3,0-1-.2-1.8-1.1-1.8-2.1,0-1.2,0-2.3,0-3.5v-7.1s0-3.5,0-3.5c0-.6,0-1.4,0-1.9C.8,1.6,1.9.7,3.1.7c1.1,0,2.3,0,3.4,0h7s3.4,0,3.4,0c.2,0,.5,0,.7,0,.9,0,1.7,0,2.4.6.3.3.5.7.6,1.1,0,.5,0,1.9,0,2.4v5.1c-.5.2-.7.3-1.1.6v-5.4s0-1.5,0-1.5c0-.5,0-1.1-.3-1.5-.3-.3-.6-.4-1.1-.4H7.6s-3.1,0-3.1,0c-.4,0-.9,0-1.3,0-.5,0-.8.1-1.1.4-.5.5-.4,1.2-.4,1.9v1.9s0,7,0,7c0,0,.9-1,1-1.2l2.6-3.2c.2-.2.3-.4.5-.7.2-.3.4-.6.7-.8.3-.2.9-.1,1.1.1.4.5.8.9,1.1,1.4l1.9,2.4c.3.4.6.8,1,1.2.4-.4.8-.8,1.1-1.2.2-.2.4-.5.6-.6.1,0,.3-.1.5-.2.2,0,.5,0,.6.2.3.3.6.7.8,1l1.5,1.9c-1.1,1.1-2.1,2.1-3.2,3.2-.9.9-1.5,1.6-1.5,3,0,0,0,.1,0,.2,0,.5.1.7.3,1.1"/>
  <path class="st3" d="M12.3,20.3h-6.8s-1.9,0-1.9,0c-.4,0-.9,0-1.3,0-1-.2-1.8-1.1-1.8-2.1,0-1.1,0-2.2,0-3.4v-6.9s0-3.4,0-3.4c0-.6,0-1.3,0-1.9C.8,1.5,1.9.7,3.1.7c1.1,0,2.3,0,3.4,0h7s3.4,0,3.4,0c.2,0,.5,0,.7,0,.9,0,1.7,0,2.4.6.3.3.5.7.6,1,0,.4,0,1.9,0,2.4v4.9c-.5.2-.7.3-1.1.6v-5.2s0-1.5,0-1.5c0-.5,0-1.1-.3-1.5-.3-.3-.6-.3-1.1-.4H7.6s-3.1,0-3.1,0c-.4,0-.9,0-1.3,0-.5,0-.8,0-1.1.4-.5.5-.4,1.2-.4,1.8v1.8s0,6.8,0,6.8c0,1.1,0,2.4,0,3.5,0,.4,0,.9,0,1.3,0,.5,0,1.1.3,1.5.4.4,1.2.3,1.7.3h1.8s6.6,0,6.6,0c0,.4.1.7.3,1.1"/>
  <path class="st1" d="M1.7,16.6l3.2-1.8c.5-.3,1.5-.9,2.1-1,.4-.1.8-.1,1.3,0,.5.1,1.2.6,1.7.8,1.2.6,2.5,1.4,3.7,1.9-.9.9-1.5,1.6-1.5,3,0,0,0,.1,0,.2h-6.6s-1.8,0-1.8,0c-.6,0-1.3,0-1.7-.3-.4-.4-.3-1-.3-1.5,0-.5,0-.9,0-1.4"/>
  <path class="st2" d="M21.7,10.6c.1,0,.4,0,.6,0,.8,0,1.5.4,2,1,1,1.2.9,3-.3,4.1-.9.8-1.7,1.8-2.6,2.5.1-.7.1-1.1,0-1.7.4-.4.9-.9,1.3-1.3.4-.5.8-.7,1-1.4,0-.4,0-.9-.2-1.2-.3-.4-.7-.6-1.1-.7-.7,0-1.1.1-1.6.6-.7.7-1.4,1.4-2.1,2.1-.4.4-.5,1.3-.2,1.8.1.2.3.5.4.7.1.5-.2,1.1-.8.7-1.2-.9-1.4-2.7-.5-3.9.3-.4.8-.8,1.2-1.2.2-.2.5-.5.7-.7.7-.7,1.2-1.2,2.2-1.3"/>
  <path class="st3" d="M16.3,14.9s0,.2,0,.3c0,.5,0,.8.1,1.3-.4.4-.9.9-1.3,1.3-.3.3-.7.6-.9,1-.2.4-.3.9-.1,1.2.1.4.4.7.7.9.4.2.9.3,1.3.1.2,0,.4-.2.5-.3.4-.4.9-.8,1.2-1.2.4-.4,1.2-1.1,1.5-1.6.3-.5.2-1.1,0-1.5-.2-.2-.3-.4-.4-.6-.1-.4.2-1.1.6-.8.6.4.9,1,1.1,1.6,0,.4.1.7,0,1.1,0,.4-.2.8-.5,1.2-.2.4-1.1,1.1-1.4,1.5-.3.3-1.2,1.2-1.5,1.4-.6.5-1.4.6-2.2.5-.7-.1-1.4-.5-1.8-1.1-.5-.6-.6-1.4-.5-2.2,0-.4.2-.8.5-1.1.3-.4,2.6-2.7,3-2.9"/>
  <path class="st0" d="M14.2,4c1.2-.2,2.3.7,2.4,1.8.2,1.2-.7,2.3-1.8,2.4-1.2.2-2.3-.7-2.4-1.8-.2-1.2.7-2.3,1.8-2.4"/>
</svg>